<svg width="11" height="15" viewBox="0 0 11 15" fill="none" xmlns="http://www.w3.org/2000/svg">
<path d="M5.38569 0.701172C2.68136 0.701172 0.494141 2.88839 0.494141 5.59272C0.494141 9.26138 5.38569 14.677 5.38569 14.677C5.38569 14.677 10.2772 9.26138 10.2772 5.59272C10.2772 2.88839 8.09001 0.701172 5.38569 0.701172ZM5.38569 7.3397C4.92236 7.3397 4.47801 7.15564 4.15038 6.82802C3.82276 6.5004 3.63871 6.05605 3.63871 5.59272C3.63871 5.12939 3.82276 4.68504 4.15038 4.35742C4.47801 4.02979 4.92236 3.84574 5.38569 3.84574C5.84901 3.84574 6.29337 4.02979 6.62099 4.35742C6.94861 4.68504 7.13267 5.12939 7.13267 5.59272C7.13267 6.05605 6.94861 6.5004 6.62099 6.82802C6.29337 7.15564 5.84901 7.3397 5.38569 7.3397Z" fill="#00927C"/>
</svg>
