<svg width="137" height="24" viewBox="0 0 137 24" fill="none" xmlns="http://www.w3.org/2000/svg">
<g clip-path="url(#clip0_2391_57)">
<path d="M12.3339 17.27L18.5139 21L16.8739 13.97L22.3339 9.24L15.1439 8.63L12.3339 2L9.52386 8.63L2.33386 9.24L7.79386 13.97L6.15386 21L12.3339 17.27Z" fill="#EECE43"/>
</g>
<g clip-path="url(#clip1_2391_57)">
<path d="M40.3339 17.27L46.5139 21L44.8739 13.97L50.3339 9.24L43.1439 8.63L40.3339 2L37.5239 8.63L30.3339 9.24L35.7939 13.97L34.1539 21L40.3339 17.27Z" fill="#EECE43"/>
</g>
<g clip-path="url(#clip2_2391_57)">
<path d="M68.3339 17.27L74.5139 21L72.8739 13.97L78.3339 9.24L71.1439 8.63L68.3339 2L65.5239 8.63L58.3339 9.24L63.7939 13.97L62.1539 21L68.3339 17.27Z" fill="#EECE43"/>
</g>
<g clip-path="url(#clip3_2391_57)">
<path d="M106.334 9.24L99.1439 8.62L96.3339 2L93.5239 8.63L86.3339 9.24L91.7939 13.97L90.1539 21L96.3339 17.27L102.514 21L100.884 13.97L106.334 9.24ZM96.3339 15.4V6.1L98.0439 10.14L102.424 10.52L99.1039 13.4L100.104 17.68L96.3339 15.4Z" fill="#EECE43"/>
</g>
<g clip-path="url(#clip4_2391_57)">
<path d="M134.334 9.24L127.144 8.62L124.334 2L121.524 8.63L114.334 9.24L119.794 13.97L118.154 21L124.334 17.27L130.514 21L128.884 13.97L134.334 9.24ZM124.334 15.4L120.574 17.67L121.574 13.39L118.254 10.51L122.634 10.13L124.334 6.1L126.044 10.14L130.424 10.52L127.104 13.4L128.104 17.68L124.334 15.4Z" fill="#EECE43"/>
</g>
<defs>
<clipPath id="clip0_2391_57">
<rect width="24" height="24" fill="white" transform="translate(0.333374)"/>
</clipPath>
<clipPath id="clip1_2391_57">
<rect width="24" height="24" fill="white" transform="translate(28.3334)"/>
</clipPath>
<clipPath id="clip2_2391_57">
<rect width="24" height="24" fill="white" transform="translate(56.3334)"/>
</clipPath>
<clipPath id="clip3_2391_57">
<rect width="24" height="24" fill="white" transform="translate(84.3334)"/>
</clipPath>
<clipPath id="clip4_2391_57">
<rect width="24" height="24" fill="white" transform="translate(112.333)"/>
</clipPath>
</defs>
</svg>
