<svg width="828" height="506" viewBox="0 0 828 506" fill="none" xmlns="http://www.w3.org/2000/svg">
<path d="M566.513 383.296C569.696 382.929 607.131 378.062 607.131 378.062C602.26 370.268 606.615 367.746 603.985 365.373C601.352 362.995 601.221 356.623 603.76 354.443C606.298 352.265 602.169 350.983 603.643 348.772C605.117 346.565 598.804 342.547 598.804 342.547L585.475 301.271C572.982 302.809 559.579 304.379 547.586 305.727L547.805 367.584L552.395 396.443C559.522 398.224 555.371 393.347 557.041 390.883C558.136 389.27 561.716 391.498 560.344 393.853C558.975 396.207 561.98 395.953 562.649 397.553C564.246 401.368 564.42 394.984 566.171 396.366C567.922 397.747 567.228 393.51 568.537 393.18C567.901 391.793 568.932 390.236 566.611 388.157C564.29 386.075 563.33 383.667 566.513 383.296Z" fill="#49C7AB" stroke="#6B8B9E" stroke-width="1.06818"/>
<path d="M196.492 456.731C196.482 458.958 199.855 461.999 199.362 463.312C198.867 464.624 197.284 466.805 196.289 465.979C195.296 465.152 195.748 463.109 194.753 464.122C192.69 466.226 192.906 461.951 190.302 463.108C188.559 463.88 189.966 460.467 184.138 457.896C182.62 457.225 181.444 456.713 181.926 458.005C182.408 459.297 181.124 461.298 183.816 461.22C186.506 461.144 187.189 463.756 187.605 464.919C188.018 466.082 190.565 466.356 190.589 467.461C190.611 468.569 193.315 470.206 192.144 470.229C190.971 470.255 190.541 471.499 189.539 470.283C188.726 467.696 185.849 469.36 185.697 467.172C185.544 464.984 182.137 466.227 181.848 463.736C181.559 461.245 179.225 462.878 179.446 460.921C179.666 458.963 178.544 458.271 178.17 459.057C177.794 459.847 177.527 462.718 176.474 462.152C175.42 461.588 173.891 456.868 174.808 457.109C175.724 457.35 177.094 457.389 176.207 455.451C175.322 453.517 180.349 453.023 174.614 450.732C173.554 450.308 175.559 448.086 169.845 446.858C168.934 446.664 174.497 453.007 174.212 453.344C173.258 454.469 175.628 455.724 173.418 455.964C172.141 456.103 171.538 453.204 171.199 452.559C170.86 451.915 166.81 448.126 167.713 447.748C169.844 446.857 163.027 441.593 162.855 442.702C162.681 443.814 165.164 447.342 165.5 447.855C165.836 448.371 162.817 447.195 162.903 448.236C162.989 449.276 167.044 450.194 167.318 450.749C168.984 454.117 170.087 452.364 169.615 454.803C169.346 456.2 175.699 462.426 174.602 462.905C173.503 463.384 172.611 461.122 171.367 460.823C170.125 460.523 168.716 455.387 166.973 456.095C165.228 456.802 165.603 453.931 163.28 453.891C161.615 453.864 161.316 450.222 161.964 450.077C162.612 449.934 155.256 450.149 154.187 448.869C153.119 447.588 147.009 445.046 145.576 445.075C144.143 445.103 144.47 441.973 143.152 441.283C141.837 440.593 141.647 445.804 135.376 443.199C131.74 441.689 120.586 448.427 119.947 443.71C119.591 441.084 116.403 445.563 115.652 443.928C114.902 442.293 113.232 443.522 113.721 441.884C114.208 440.247 111.314 442.064 110.441 440.78C107.965 438.617 108.102 441.533 105.587 442.311C102.588 443.241 108.459 445.813 106.205 447.05C102.852 448.894 108.887 449.708 105.571 451.1C104.069 451.729 102.787 452.002 101.606 451.506C100.422 451.01 99.1366 452.677 99.3716 453.765C99.9954 456.66 95.3029 456.582 94.0025 458.823C93.5178 459.66 91.2958 460.243 91.4644 458.941C91.6341 457.634 95.2291 455.087 94.3704 454.518C93.5116 453.949 90.4555 454.207 91.767 451.38C93.0761 448.555 91.5185 445.658 93.1413 445.364C94.7641 445.07 95.5749 443.296 97.6061 443.905C99.6374 444.513 99.8662 442.948 98.4206 442.326C96.9762 441.702 99.283 439.833 98.1031 439.533C96.9245 439.232 96.4484 441.454 94.4233 441.17C92.3982 440.887 87.7734 447.266 87.7439 448.987C87.6725 453.004 83.8708 449.696 85.5084 454.373C86.4803 457.148 77.3932 459.984 81.703 462.587C83.0502 463.403 87.2456 463.476 85.5195 464.463C76.6341 469.548 85.4949 469.628 80.3903 471.663C79.4811 472.024 71.4004 478.032 72.1398 479.122C72.8792 480.213 70.2033 483.196 69.0923 483.024C67.9813 482.852 62.1631 488.179 63.2065 488.289C64.251 488.398 63.1105 489.918 61.2982 490.54C59.4872 491.163 56.1235 492.339 55.8873 493.517C55.6511 494.692 50.3103 497.925 49.8883 496.37C49.4663 494.816 48.0207 494.261 47.7094 494.984C47.3993 495.705 46.5738 499.955 45.3263 499.459C44.0787 498.964 43.9335 498.253 43.0982 498.854C42.264 499.458 39.5389 500.035 41.5799 497.845C43.6198 495.655 42.7832 498.276 43.6198 495.655C44.4564 493.032 50.4136 490.244 51.5504 491.651C52.686 493.061 54.7431 491.717 54.1919 490.231C53.6395 488.745 60.3706 483.398 61.3573 483.835C62.3428 484.27 62.2616 480.302 63.6875 479.881C65.111 479.461 67.2739 476.878 66.5947 475.525C65.9156 474.171 66.388 468.629 67.9419 468.143C69.4946 467.654 69.8305 464.979 69.1735 464.667C68.5153 464.354 65.3927 467.739 64.2079 467.111C63.0231 466.484 64.299 465.221 63.0527 464.788C61.8064 464.359 61.5283 466.709 61.5443 467.49C61.5615 468.272 58.6777 470.652 58.6223 467.938C58.5669 465.227 56.1973 468.315 54.9215 465.347C53.6444 462.378 49.0197 469.829 48.2089 468.412C47.3981 466.997 45.5133 464.04 47.2283 461.857C48.9422 459.675 45.2955 453.37 46.5147 452.431C47.7328 451.496 46.0079 449.97 45.2463 450.962C44.4847 451.954 44.6803 455.14 43.9102 455.743C43.1412 456.343 38.0858 457.619 37.8718 456.713C37.6577 455.804 33.2003 451.208 33.9532 449.825C34.7062 448.443 36.2859 449.257 36.4274 449.776C36.5689 450.292 39.8575 451.851 40.0261 450.547C40.1946 449.242 39.1218 447.765 36.7067 447.555C34.2928 447.344 33.4722 447.21 33.7551 444.75C34.0381 442.293 30.4677 446.098 31.2674 442.72C31.4803 441.818 32.9874 434.483 33.8351 434.528C34.6828 434.577 38.5091 433.762 37.5593 431.905C36.6082 430.045 39.454 425.822 40.2106 427.759C40.966 429.695 45.9279 427.057 46.0989 425.817C46.2687 424.575 51.8408 426.219 51.3843 423.038C50.9279 419.858 53.4464 418.764 51.3376 417.571C49.2288 416.376 52.8017 412.724 50.4665 413.163C48.1301 413.6 46.1297 417.743 44.4786 416.605C42.8263 415.468 36.7546 418 34.5069 416.353C32.2578 414.705 30.0433 414.49 30.5821 412.267C31.121 410.042 32.7401 409.62 31.0275 408.677C29.3137 407.736 25.7532 403.707 29.0578 403.835C32.3636 403.964 32.6392 401.484 33.8929 402.239C35.1466 402.995 37.2665 398.394 38.3258 399.219C39.3851 400.044 41.8974 398.693 41.2108 400.136C40.5243 401.582 43.0994 403.288 44.2731 403.33C45.4468 403.371 47.5457 400.92 49.1365 402.254C50.7273 403.589 53.9409 401.441 52.6737 400.032C51.4077 398.627 49.4171 400.034 48.2163 398.627C47.0155 397.22 48.4722 395.235 46.8925 394.488C45.3152 393.739 39.8452 394.956 38.3983 386.847C38.0403 384.848 33.6198 382.372 34.2965 380.553C35.8208 376.464 43.733 381.162 44.6902 372.724C45.0051 369.939 51.8666 362.593 53.3307 365.257C53.8966 366.285 56.5074 364.475 55.581 363.778C54.6558 363.082 56.3819 361.482 57.3674 361.92C58.3529 362.355 61.6304 356.95 62.9505 357.769C64.2707 358.586 63.9213 360.614 64.972 361.049C66.0239 361.482 70.5281 361.976 71.2281 361.178C71.9282 360.384 74.6632 358.225 75.7951 361.542C76.9269 364.859 84.2805 359.2 87.9863 362.008C91.692 364.821 92.862 360.5 96.0055 362.367C99.1502 364.234 107.691 360.434 111.189 362.643C111.189 362.643 132.697 437.59 135.703 440.133C138.709 442.676 142.043 435.836 144.268 438.525C145.214 439.668 155.903 451.091 157.479 441.118C157.626 440.193 159.343 435.19 160.506 436.24C170.373 445.151 174.411 443.073 187.333 454.831C188.338 455.749 196.505 453.129 196.492 456.731ZM16.0952 422.785C13.8708 420.226 13.6247 421.876 10.9463 421.588C3.45981 420.785 14.1107 423.433 14.8353 424.893C15.56 426.356 17.5592 426.488 19.1168 426.195C20.6744 425.903 17.2197 424.077 16.0952 422.785ZM28.6776 452.3C27.9271 451.716 24.3543 452.91 24.3789 454.08C24.4035 455.251 29.0295 456.372 30.1208 455.657C31.2084 454.94 29.0947 452.627 28.6776 452.3ZM90.0409 471.098C88.8204 470.864 90.7926 467.715 89.9634 467.282C88.2065 466.362 86.7215 470.212 87.4425 471.412C88.161 472.614 86.1039 473.958 84.3494 473.125C82.5962 472.292 82.05 475.342 81.0534 477.619C80.0581 479.895 85.7458 482.036 86.3069 479.682C86.8679 477.327 88.6457 475.12 89.7481 475.966C90.8517 476.812 91.2614 471.333 90.0409 471.098ZM34.967 500.433C33.4771 499.771 31.8986 503.274 32.435 504.045C32.9714 504.815 35.2561 501.903 36.2268 502.58C37.1951 503.255 39.7345 501.83 39.1341 500.35C37.9456 497.423 36.4569 501.099 34.967 500.433Z" fill="#49C7AB" stroke="#6B8B9E" stroke-width="1.06818"/>
<path d="M140.163 257.764C138.872 265.525 137.221 271.023 137.847 271.472C139.698 272.801 136.958 279.996 133.512 274.902C130.063 269.807 124.764 278.118 126.923 279.439C129.085 280.761 126.007 286.899 126.964 289.156C127.922 291.416 124.537 289.357 124.978 296.032C127.749 297.798 125.173 305.595 128.246 307.202C131.318 308.811 129.11 312.349 124.746 314.413C120.382 316.473 121.64 326.015 118.565 326.533C115.489 327.052 116.773 333.252 119.833 334.252C122.893 335.252 119.477 339.119 116.552 339.735C115.865 340.861 114.672 342.001 114.201 343.629C116.451 344.697 164.302 371.258 172.295 375.751C176.478 376.46 192.954 378.033 205.317 379.165C206.481 371.861 211.804 320.982 217.355 267.937C191.519 265.307 165.441 261.965 140.163 257.764Z" fill="#49C7AB" stroke="#6B8B9E" stroke-width="1.06818"/>
<path d="M514.29 301.448C512.717 298.747 517.291 300.91 516.224 296.854C514.686 291.013 521.769 295.526 519.681 289.294C518.333 289.522 512.427 291.012 510.71 289.781C506.599 286.828 516.861 283.48 511.236 280.828C484.932 282.41 441.316 284.717 441.316 284.717L444.851 304.083L445.595 340.512C449.338 345.182 451.674 340.54 452.938 342.792L453.142 352.81L500.495 350.02C498.415 347.534 503.486 345.098 500.295 342.938C497.106 340.778 501.693 337.947 500.414 334.937C499.136 331.926 503.848 332.539 502.358 329.026C500.87 325.514 505.98 326.927 505.798 322.881C505.614 318.837 508.887 319.991 508.112 316.666C507.334 313.34 513.397 312.399 512.123 308.781H512.126C512.024 308.783 511.908 309.091 511.813 309.099C511.908 309.091 512.032 309.229 512.134 309.225C510.874 306.3 515.866 304.151 514.29 301.448Z" fill="#49C7AB" stroke="#6B8B9E" stroke-width="1.06818"/>
<path d="M119.833 334.255C116.774 333.254 115.489 327.055 118.565 326.536C121.64 326.016 120.382 316.474 124.746 314.415C129.11 312.351 131.318 308.812 128.246 307.205C125.173 305.598 127.749 297.8 124.978 296.034L57.8066 201.432L70.9206 144.463C49.0935 139.817 28.2593 134.796 11.7682 129.783C10.6301 133.551 12.8742 144.238 8.78835 147.561C4.70123 150.882 6.68204 154.441 2.78563 156.187C-3.13588 158.841 8.74528 175.201 5.17614 179.017C1.60699 182.834 6.71772 185.062 4.54129 187.635C2.36486 190.209 5.21304 195.721 7.2689 197.197C9.32599 198.674 10.4468 203.916 11.6907 205.308C12.9333 206.698 12.8496 207.511 10.9377 208.158C9.0258 208.804 13.0772 213.682 14.8181 214.962C16.559 216.242 16.5147 213.409 16.7817 211.581C17.0487 209.755 21.4335 218.574 17.0942 216.94C16.2797 216.633 16.1038 218.074 15.1823 219.005C14.2608 219.934 16.1247 224.047 15.4579 226.086C14.7911 228.124 17.4362 232.871 18.8548 233.71C27.4682 238.8 13.9409 241.102 20.8319 251.184C22.1004 253.041 22.6405 260.362 25.2795 260.61C27.9198 260.857 26.1001 266.163 28.952 266.812C31.8014 267.46 28.0674 273.108 30.5022 273.26C32.937 273.408 32.451 279.395 30.5649 281.257C28.6789 283.118 30.4788 286.073 31.8137 287.813C34.4158 291.201 48.8733 289.793 49.4097 296.261C49.6484 299.13 53.4734 301.746 57.0192 301.773C60.5638 301.8 60.9956 306.38 61.3979 307.859C62.2739 311.082 67.5975 308.849 71.0731 315.356C74.55 321.864 76.318 329.118 75.6302 330.145C74.9425 331.171 77.5938 336.987 78.5055 337.072C79.4196 337.153 113.616 339.999 116.549 339.737C119.477 339.121 122.893 335.256 119.833 334.255Z" fill="#49C7AB" stroke="#6B8B9E" stroke-width="1.06818"/>
<path d="M326.887 215.991C327.036 204.37 327.155 195.933 327.155 195.933C322.376 195.926 312.38 195.439 299.931 194.677C277.846 193.327 248.012 191.109 225.664 189.158C223.203 212.11 220.249 240.319 217.355 267.941C249.603 271.227 281.476 273.404 310.943 274.738C316.156 274.975 321.294 275.183 326.345 275.369C326.332 262.29 326.646 234.919 326.887 215.991Z" fill="#49C7AB" stroke="#6B8B9E" stroke-width="1.06818"/>
<path d="M763.255 121.224L766.056 134.428C763.046 135.907 759.892 135.162 758.487 135.899C757.084 136.636 758.036 138.54 756.32 138.879C754.605 139.219 744.221 146.618 742.437 148.477L740.464 146.189L742.848 143.812L739.077 127.387C744.512 126.061 763.255 121.224 763.255 121.224ZM786.016 203.632C786.016 200.231 783.476 197.474 780.34 197.474H758.476C755.34 197.474 752.799 200.231 752.799 203.632V215.908C752.799 219.309 755.34 222.065 758.476 222.065H780.34C783.476 222.065 786.016 219.309 786.016 215.908V203.632Z" fill="#49C7AB" stroke="#6B8B9E" stroke-width="1.06818"/>
<path d="M722.437 181.18C721.742 181.803 722.528 185.635 724.697 187.615C726.864 189.595 725.908 192.449 728.167 193.82C730.423 195.192 731.458 196.183 733.029 198.885C734.606 201.585 734.315 202.198 733.424 203.23L724.841 204.62L718.286 181.266C718.286 181.266 716.886 176.637 723.729 177.104C721.366 177.643 721.652 179.857 722.437 181.18ZM786.016 238.058C786.016 234.657 783.476 231.902 780.342 231.902H758.473C755.339 231.902 752.799 234.658 752.799 238.058V250.335C752.799 253.736 755.339 256.492 758.473 256.492H780.342C783.476 256.492 786.016 253.736 786.016 250.335V238.058Z" fill="#49C7AB" stroke="#6B8B9E" stroke-width="1.06818"/>
<path d="M660.526 373.633C652.276 371.373 663.997 387.384 653.955 379.234C642.884 380.222 623.493 382.278 613.154 382.953C609.511 383.192 609.647 382.097 607.131 378.063C607.131 378.063 569.696 382.929 566.513 383.297C563.33 383.667 564.29 386.076 566.613 388.155C568.934 390.234 567.903 391.791 568.538 393.177C569.847 392.847 568.185 395.817 570.625 396.071C573.062 396.324 572.267 391.081 574.562 390.523C577.284 389.861 575.018 393.157 577.459 393.603C581.934 394.424 582.099 392.597 582.671 390.863C583.244 389.132 589.522 389.003 588.654 391.145C587.785 393.289 591.753 394.121 594.199 394.879C596.646 395.64 596.983 392.963 598.415 392.971C602.571 392.989 598.436 398.843 602.484 398.659C604.404 398.57 605.769 400.718 605.809 402.74C605.85 404.763 611.295 403.74 611.37 402.223C611.656 396.346 618.244 401.476 623.746 393.161C625.608 390.352 628.237 394.782 630.962 394.33C635.809 393.524 634.898 398.011 636.614 398.163C642.196 398.66 637.138 404.027 642.932 405.019C650.747 406.358 647.277 409.387 653.61 411.89C656.903 413.191 654.072 419.674 653.391 425.966C652.709 432.255 654.569 434.14 656.705 434.504C658.838 434.865 656.957 432.068 656.427 430.864C655.895 429.659 658.222 429.509 660.668 430.27C663.114 431.031 655.487 439.389 659.363 440.725C663.237 442.062 662.894 447.793 665.429 450.016C671.41 455.26 664.224 445.587 670.036 447.494C671.322 447.914 669.477 454.795 671.41 455.258C673.344 455.726 674.043 450.246 675.691 451.527C677.339 452.81 672.134 455.956 674.781 456.607C677.427 457.263 677.112 461.298 678.578 463.922C681.208 468.626 690.125 463.89 690.946 474.299C691.128 476.621 695.704 473.473 696.059 476.624C696.876 483.866 686.722 478.619 686.614 483.356C686.56 485.794 691.716 482.206 698.318 481.567C704.07 481.014 702.175 474.667 705.301 472.789C707.221 471.638 704.209 468.765 704.889 467.535C709.479 459.241 704.377 442.54 703.224 440.639C702.072 438.741 699.734 439.458 700.015 437.263C700.107 436.54 697.919 430.695 695.458 427.436C692.826 423.946 684.468 410.145 684.761 409.53C685.05 408.919 689.349 411.034 687.292 409.48C674.123 399.526 670.407 381.378 669.05 379.279C667.689 377.18 666.027 375.19 666.495 373.256C665.197 374.094 663.28 374.389 660.526 373.633Z" fill="#49C7AB" stroke="#6B8B9E" stroke-width="1.06818"/>
<path d="M664.207 338.177C660.414 338 661.005 330.193 656.11 328.47C651.21 326.749 651.994 320.505 647.593 320.748C643.191 320.989 646.577 315.604 641.09 314.806C635.603 314.007 637.296 307.594 629.489 304.868C621.684 302.142 622.705 300.147 625.203 295.845C620.76 296.585 614.059 297.573 606.076 298.639C599.836 299.471 592.812 300.365 585.476 301.27L598.805 342.546C598.805 342.546 605.118 346.565 603.644 348.771C602.17 350.982 606.298 352.265 603.761 354.442C601.223 356.62 601.353 362.994 603.986 365.372C606.616 367.747 602.261 370.267 607.132 378.061C609.649 382.094 609.514 383.191 613.156 382.951C623.494 382.275 642.885 380.219 653.956 379.233C663.998 387.382 652.277 371.371 660.528 373.631C663.281 374.387 665.198 374.092 666.497 373.256C666.965 371.322 664.552 364.771 667.414 363.62C671.132 362.128 664.097 359.842 667.927 358.955C672.163 357.972 665.638 351.003 669.285 351.132C672.935 351.258 671.336 347.343 672.219 346.011C663.763 346.184 666.49 338.281 664.207 338.177Z" fill="#49C7AB" stroke="#6B8B9E" stroke-width="1.06818"/>
<path d="M340.877 496.455C338.458 497.858 333.648 499.639 331.417 501.964C329.185 504.286 329.972 505.636 326.299 504.344C322.624 503.053 325.237 494.831 322.861 492.268C317.888 486.903 327.17 487.471 324.62 481.752C322.072 476.034 328.437 482.586 333.618 483.24C337.717 483.758 338.334 489.781 340.77 491.144C345.227 493.632 343.295 495.051 340.877 496.455ZM308.765 464.31C303.696 463.179 310.197 467.468 311.323 470.491C312.448 473.512 315.269 470.251 317.095 470.366C318.919 470.481 317.966 468.374 315.95 466.441C313.936 464.508 311.072 464.824 308.765 464.31ZM299.476 459.296C292.104 457.313 295.507 460.951 299.104 461.544C302.702 462.139 302.578 462.886 303.751 462.311C304.924 461.734 303.144 460.287 299.476 459.296ZM281.472 452.263C280.416 447.882 273.875 452.268 275.579 453.902C280.635 458.753 279.859 455.182 281.564 456.817C283.269 458.451 285.135 458.508 285.033 455.481C284.975 453.799 281.941 454.204 281.472 452.263ZM249.141 439.104C245.683 440.997 243.276 442.102 246.199 443.873C247.942 444.924 251.084 445.77 252.138 444.51C256.142 439.72 251.011 438.08 249.141 439.104ZM290.199 480.278C290.199 476.877 287.658 474.122 284.524 474.122H262.656C259.522 474.122 256.981 476.877 256.981 480.278V492.556C256.981 495.957 259.522 498.713 262.656 498.713H284.524C287.658 498.713 290.199 495.957 290.199 492.556V480.278Z" fill="#49C7AB" stroke="#6B8B9E" stroke-width="1.06818"/>
<path d="M129.292 75.9028C127.562 80.4952 137.617 81.8083 133.294 85.8437C128.969 89.8803 127.6 97.1973 125.79 97.8416C123.979 98.4859 117.922 107.013 120.405 109.442C122.885 111.872 122.231 111.884 120.005 117.095C117.78 122.303 113.717 149.566 112.903 152.774C128.311 155.619 143.149 158.156 156.222 160.245C175.449 163.317 190.859 165.42 198.654 166.123L204.956 117.471C203.456 113.57 200.536 119.316 196.178 114.326C192.558 110.18 190.344 118.848 185.393 114.546C180.443 110.244 176.471 119.159 177.625 113.591C179.7 103.577 171.533 108.323 173.173 104.014C175.915 96.8211 167.967 101.995 170.276 96.0256C172.585 90.0561 168.577 87.2528 165.75 90.1951C162.924 93.1386 159.505 89.1291 160.837 87.7126C168.125 79.9714 158.593 81.9891 163.485 75.9668C165.901 72.9913 167.873 67.6772 163.321 67.9219C158.768 68.1665 159.195 65.4001 158.331 61.6696C156.332 53.0308 153.95 55.5096 151.765 52.6681C149.581 49.8266 154.378 46.6925 148.46 39.6755C149.245 33.4331 151.494 21.1512 151.494 21.1512C146.879 20.3052 142.374 19.4532 137.988 18.5986C136.735 24.8189 130.475 58.4236 129.055 64.2185C128.491 66.5042 131.022 71.3129 129.292 75.9028Z" fill="#49C7AB" stroke="#6B8B9E" stroke-width="1.06818"/>
<path d="M497.653 166.484C497.888 170.578 503.662 170.46 502.198 173.224C500.734 175.988 502.636 179.897 498.254 181.049C493.871 182.201 489.359 184.419 489.094 186.4C488.832 188.378 492.361 190.129 492.105 192.412C491.847 194.696 487.859 192.802 489.162 197.028C490.462 201.254 485.818 204.537 485.378 205.305C484.938 206.074 483.104 220.386 493.992 223.049C496.786 223.733 498.474 224.795 498.934 229.173C499.879 238.113 511.776 230.34 507.006 237.512C499.635 248.595 514.934 253.599 515.985 252.97C518.073 251.718 520.146 255.768 519.713 256.994C519.281 258.216 522.564 262.707 520.914 263.648C519.261 264.595 524.815 268.583 525.867 268.106C526.92 267.627 526.357 262.324 531.261 264.349C536.163 266.376 536.482 266.977 536.243 262.73C536.004 258.484 544.405 258.357 540.796 255.044C537.233 251.777 542.281 253.344 541.774 250.924C541.269 248.504 537.448 243.903 541.631 242.058C545.812 240.213 543.875 234.784 545.836 233.986C547.795 233.186 548.784 229.522 546.63 228.199C544.477 226.876 544.4 223.233 545.262 220.787L540.027 172.754C537.767 171.181 534.142 162.345 533.854 158.302L493.916 162.002C494.269 164.427 497.42 162.388 497.653 166.484Z" fill="#49C7AB" stroke="#6B8B9E" stroke-width="1.06818"/>
<path d="M546.629 228.202C548.783 229.525 547.794 233.189 545.835 233.988C543.874 234.787 545.81 240.216 541.63 242.06C537.448 243.905 541.268 248.508 541.773 250.926C543.014 249.636 545.521 250.239 548.211 248.516C552.458 245.799 554.746 250.241 556.965 248.338C559.186 246.433 565.291 249.18 565.193 244.323C565.092 239.465 574.116 244.748 573.616 240.101C573.115 235.455 577.622 237.792 576.946 234.566C576.273 231.341 580.418 235.913 579.894 230.052C579.369 224.19 590.958 226.18 586.572 219.792L579.015 167.302L549.696 170.129C546.736 173.834 542.287 174.33 540.026 172.755L545.261 220.787C544.399 223.236 544.476 226.879 546.629 228.202Z" fill="#49C7AB" stroke="#6B8B9E" stroke-width="1.06818"/>
<path d="M407.301 149.803C409.521 151.579 404.654 155.779 408.158 157.834C411.665 159.887 406.753 161.963 408.344 166.941C409.936 171.92 407.063 172.586 412.277 174.909C417.49 177.232 411.676 182.818 415.999 186.07C420.318 189.323 417.732 196.513 420.93 204.345C430.521 205.213 477.377 200.459 479.498 200.112C481.619 199.765 483.985 203.969 485.379 205.307C485.818 204.538 490.462 201.255 489.162 197.029C487.858 192.803 491.848 194.698 492.105 192.414C492.361 190.13 488.832 188.38 489.094 186.401C489.359 184.422 493.873 182.202 498.254 181.05C502.637 179.897 500.734 175.988 502.198 173.225C503.661 170.461 497.888 170.579 497.653 166.485C497.42 162.388 494.269 164.428 493.914 162.005C493.561 159.582 491.123 159.177 487.895 157.42C484.667 155.663 485.001 149.734 485.879 148.045C486.757 146.356 484.147 145.044 482.893 143.247C468.19 145.065 419.137 146.371 409.415 146.569C407.918 147.511 405.081 148.025 407.301 149.803Z" fill="#49C7AB" stroke="#6B8B9E" stroke-width="1.06818"/>
<path d="M432.608 225.366C431.071 222.771 436.498 222.552 434.6 218.948C432.704 215.342 431.761 221.283 427.548 215.75C415.877 217.203 343.25 217.184 326.888 215.992C326.647 234.92 326.333 262.291 326.347 275.369C377.354 277.242 419.544 276.595 441.35 274.998C440.955 261.564 439.806 238.508 439.368 233.935C438.722 227.214 437.485 233.618 432.608 225.366Z" fill="#49C7AB" stroke="#6B8B9E" stroke-width="1.06818"/>
<path d="M625.6 236.004C620.602 229.222 622.063 231.419 622.612 228.574C623.162 225.728 619.935 226.402 618.265 224.005C616.597 221.61 615.01 223.464 613.835 225.311C612.656 227.157 609.943 223.366 606.748 225.659C603.554 227.951 603.231 222.085 600.446 224.572C597.66 227.059 595.658 218.392 586.571 219.793C590.957 226.182 579.369 224.192 579.893 230.053C580.418 235.915 576.273 231.342 576.945 234.567C577.62 237.793 573.114 235.456 573.614 240.102C574.115 244.748 565.091 239.467 565.192 244.325C565.29 249.181 559.185 246.435 556.963 248.339C554.744 250.243 552.457 245.8 548.21 248.518C545.519 250.24 543.012 249.638 541.771 250.927C542.278 253.347 537.23 251.779 540.793 255.048C544.403 258.36 536 258.488 536.241 262.734C536.48 266.98 536.162 266.38 531.258 264.353C526.356 262.328 526.919 267.631 525.865 268.109C526.399 269.414 524.656 271.099 525.961 272.763C528.769 276.349 520.144 275.716 521.53 279.11C522.639 278.861 543.958 276.244 543.958 276.244L543.916 274.118C543.916 274.118 574.497 270.919 611.514 265.758C611.861 262.82 622.933 261.772 620.843 258.575C618.749 255.378 625.94 256.448 625.246 252.21C624.552 247.972 633.476 246.575 634.235 244.128C630.747 240.936 630.604 242.787 625.6 236.004Z" fill="#49C7AB" stroke="#6B8B9E" stroke-width="1.06818"/>
<path d="M528.815 387.512C517.588 388.447 501.001 389.698 497.445 389.872C493.891 390.049 499.441 387.706 497.927 382.978C496.411 378.249 501.407 379.769 499.8 375.551C498.195 371.331 503.147 375.683 502.869 371.436C502.593 367.191 506.156 369.345 502.445 366.18C498.731 363.018 507.747 362.937 503.634 359.983C499.521 357.03 504.718 353.48 500.494 350.021L453.141 352.811L453.556 373.153C460.887 374.926 456.272 382.106 460.141 382.94C464.007 383.773 458.556 387.223 463.137 388.243C467.716 389.264 465.632 397.711 463.438 399.375C461.245 401.039 465.904 404.082 462.381 405.267C458.863 406.454 463.361 412.737 460.803 416.335C463.919 415.158 463.651 416.376 465.98 416.33C468.309 416.283 467.865 414.166 468.849 412.726C469.831 411.289 471.572 412.064 470.917 414.708C470.262 417.355 488.611 417.892 490.623 417.244C492.637 416.596 489.001 412.115 493.084 413.749C497.171 415.387 497.449 412.326 498.994 415.352C502.267 421.765 507.099 415.288 508.261 422.656C508.802 426.09 513.051 424.075 513.278 425.286C513.506 426.497 517.748 425.803 516.893 423.794C516.043 421.786 517.256 421.761 519.987 421.505C522.717 421.247 522.252 423.28 524.202 424.454C526.15 425.629 523.96 422.535 525.46 421.595C526.96 420.651 523.163 418.299 523.219 416.071C523.273 413.843 530.299 418.522 531.306 420.158C533.4 423.558 534.84 417.46 535.996 421.682C537.154 425.907 538.714 420.819 540.39 423.516C542.065 426.214 543.212 422.65 542.449 420.135C541.688 417.618 532.505 419.326 532.402 414.265C532.299 409.206 535.777 412.817 536.269 410.237C537.551 403.533 533.604 408.672 532.206 409.613C530.804 410.552 529.12 407.347 530.518 406.408C531.919 405.468 527.452 405.051 526.261 406.191C525.067 407.328 514.838 407.436 519.906 402.676C522.678 400.073 525.118 399.835 526.987 402.127C528.858 404.415 529.273 401.967 532.175 403.135C533.467 397.033 523.114 396.027 528.815 387.512Z" fill="#49C7AB" stroke="#6B8B9E" stroke-width="1.06818"/>
<path d="M807.443 43.0763C807.553 38.5184 802.537 45.8096 801.157 37.8397C800.492 33.9863 796.096 38.045 794.563 32.3055C793.028 26.5672 785.09 9.92409 781.298 7.77361C777.505 5.62314 774.199 12.3733 771.873 12.5209C769.547 12.6697 768.047 8.75233 767.028 8.46954C766.01 8.18674 759.062 25.2356 761.045 27.9283C763.024 30.621 761.095 36.3692 760.338 37.9663C758.589 41.6451 764.248 40.9234 761.661 43.3038C756.903 47.6859 760.93 52.127 757.838 54.5185C755.887 56.0271 756.016 54.5566 754.441 56.8153L767.136 93.0033C767.136 93.0033 771.217 94.539 772.179 96.9501C772.73 94.2057 773.724 78.3913 777.622 80.741C781.519 83.0907 776.965 73.3637 781.879 75.8966C785.858 77.9462 783.458 73.8396 785.994 73.9908C788.531 74.1408 787.478 66.4463 787.726 64.6413C788.611 58.2452 790.48 70.4558 795.047 60.9478C796.203 58.5391 800.458 62.9642 801.273 58.2895C802.063 53.7746 811.277 52.1123 811.615 48.7642C811.897 45.9436 807.335 47.6355 807.443 43.0763Z" fill="#49C7AB" stroke="#6B8B9E" stroke-width="1.06818"/>
<path d="M724.842 204.619L733.425 203.228C734.879 204.919 733.167 210.422 732.59 211.952L730.271 212.505C729.744 211.606 725.134 213.925 726.323 212.585C727.511 211.245 722.839 210.733 723.517 209.201C724.197 207.668 718.9 211.319 719.551 208.471C720.202 205.623 715.782 207.535 717.36 205.378C718.938 203.22 720.283 204.508 720.463 203.491C720.643 202.476 716.699 202.759 716.459 200.941C716.219 199.124 713.147 197.365 715.753 196.097C718.361 194.829 712.808 190.79 714.721 190.145C716.631 189.499 718.789 186.114 716.951 185.342C715.112 184.57 713.874 187.761 712.563 188.57C708.36 191.158 709.163 195.825 711.134 198.115C713.106 200.403 710.278 200.764 711.945 202.957C713.608 205.15 712.942 207.087 715.808 208.75C718.679 210.413 714.002 209.596 712.56 208.31C711.115 207.023 711.88 209.64 713.618 210.618C715.36 211.593 717.707 212.355 717.218 213.276C716.731 214.198 714.499 214.04 713.369 213.254C712.239 212.467 707.309 209.227 705.924 210.774C700.727 214.22 698.717 210.009 703.58 205.05C706.487 202.084 701.813 197.999 697.991 199.293C694.169 200.585 698.402 194.628 691.212 194.775C691.133 191.126 688.917 191.581 685.047 190.446C681.172 189.31 680.055 194.192 676.396 193.457C672.732 192.723 677.072 196.885 672.809 196.365C668.541 195.845 666.059 203.184 666.059 203.184L663.798 192.609L718.287 181.264L724.842 204.619ZM826.617 238.056C826.617 234.657 824.076 231.901 820.942 231.901H799.074C795.94 231.901 793.399 234.657 793.399 238.056V250.337C793.399 253.737 795.94 256.492 799.074 256.492H820.942C824.076 256.492 826.617 253.737 826.617 250.337V238.056Z" fill="#49C7AB" stroke="#6B8B9E" stroke-width="1.06818"/>
<path d="M771.257 101.521C771.957 105.962 775.636 102.545 776.094 105.17C776.235 105.973 771.078 107.601 772.066 111.224C773.051 114.848 777.755 112.723 777.598 114.351C777.183 118.712 780.562 120.566 782.494 120.832C784.422 121.096 790.254 118.851 789.007 117.358C787.76 115.865 790.08 115.311 790.511 116.517C790.938 117.724 791.4 120.447 786.782 122.466C782.163 124.484 782.309 126.708 781.147 124.302C779.982 121.895 774.952 128.579 774.288 125.658C773.618 122.735 774.432 122.921 773.123 123.352C771.816 123.785 770.616 124.518 769.964 122.405C768.672 118.686 763.258 121.225 763.258 121.225C763.258 121.225 744.514 126.062 739.08 127.388C739.08 127.388 738.631 115.856 738.781 113.221C738.781 113.221 743.36 112.111 748.668 110.821C754.964 109.291 762.291 107.512 764.232 107.032C768.999 104.908 767.713 101.492 771.257 101.521ZM786.016 169.205C786.016 165.804 783.476 163.047 780.34 163.047H758.476C755.34 163.047 752.799 165.804 752.799 169.205V181.48C752.799 184.881 755.34 187.638 758.476 187.638H780.34C783.476 187.638 786.016 184.881 786.016 181.48V169.205Z" fill="#49C7AB" stroke="#6B8B9E" stroke-width="1.06818"/>
<path d="M602.157 119.857C603.531 127.523 609.071 131.054 609.226 138.644C609.685 141.369 609.835 143.694 609.351 144.716C606.01 144.785 599.033 145.637 603.024 152.437C601.845 154.283 602.416 159.547 604.166 158.691C603.163 159.114 597.976 163.07 598.013 164.891L579.017 167.304L549.697 170.13C552.661 166.425 559.503 154.137 554.656 145.124C549.812 136.111 552.332 130.592 549.019 127.015C545.706 123.438 552.121 120.068 551.205 115.026C550.289 109.982 554.164 111.117 553.897 108.086C553.635 105.054 557.61 101.329 558.52 106.17C559.428 111.01 562.61 108.111 561.929 104.479C561.246 100.849 562.612 98.1898 565.236 97.7299C567.859 97.2701 565.109 91.6584 567.095 89.5928C569.08 87.5272 571.332 88.6964 572.164 89.6924C572.993 90.6883 578.829 88.7456 578.29 92.1994C577.753 95.6532 591.028 92.8548 589.15 98.0521C586.272 106.008 594.659 109.886 589.914 115.652C585.168 121.417 590.993 118.869 586.406 122.494C581.821 126.119 585.273 126.478 588.116 126.825C590.959 127.171 591.207 119.472 595.093 121.214C598.977 122.958 600.785 112.191 602.157 119.857ZM558.411 71.1422C552.63 75.7149 549.766 74.3563 545.726 75.046C541.691 75.7346 541.037 83.2914 537.357 79.4699C531.512 73.3948 528.793 79.2388 522.693 72.4787C520.313 69.8414 518 76.6248 515.274 72.0226C512.548 67.4204 518.366 64.6699 520.988 64.0084C523.607 63.3481 523.59 58.2467 518.896 60.8116C514.201 63.374 506.105 71.9132 502.39 75.9301C497.235 81.5012 493.641 74.1657 487.918 81.6917C490.181 83.2668 488.58 86.423 494.943 86.6099C511.127 87.0894 501.082 91.3449 515.862 90.8396C520.518 90.6809 520.809 94.9905 525.064 94.9044C529.316 94.8171 522.825 100.828 528.448 101.923C530.393 102.3 531.376 103.024 531.72 103.97C534.679 99.5669 537.471 87.3624 539.166 90.9723C540.861 94.5823 543.298 94.9376 543.633 91.4888C543.966 88.0399 552.319 90.0969 553.058 86.6394C553.797 83.1819 561.678 82.2106 564.353 84.1816C567.027 86.1525 569.342 80.37 571.822 82.8832C574.305 85.3964 579.049 82.8942 578.467 81.0597C577.885 79.2253 575.605 79.8019 575.04 76.8781C574.473 73.9542 572.042 73.9013 569.629 74.762C565.072 79.915 562.604 67.8274 558.411 71.1422ZM510.544 48.6329C509.5 47.2374 499.659 54.6171 501.367 55.7041C503.831 57.273 511.581 50.0285 510.544 48.6329Z" fill="#49C7AB" stroke="#6B8B9E" stroke-width="1.06818"/>
<path d="M397.845 55.4888C401.156 64.3255 403.068 64.0648 402.479 67.2899C401.281 73.8631 404.995 79.6137 403.854 82.4478C400.094 91.7886 408.416 90.0992 406.285 99.9626C409.015 104.512 401.555 103.753 402.363 106.167C403.171 108.582 408.064 109.999 408.148 114.097L408.812 146.581C418.53 146.383 467.89 145.071 482.593 143.252C485.263 142.922 481.918 132.484 476.98 133.192C472.047 133.901 471.357 125.107 467.557 125.033C464.424 124.972 463.73 121.771 460.518 120.773C457.305 119.776 463.141 114.341 459.418 110.622C455.693 106.901 461.183 107.396 458.229 104.115C455.274 100.836 461.705 95.54 463.523 95.1994C465.339 94.86 464.423 87.1323 464.361 84.0978C464.299 81.0621 466.454 82.3851 466.722 80.5567C466.988 78.7296 484.274 61.9758 489.378 58.9856C494.484 55.9953 494.772 55.2305 493.927 53.5276C491.332 55.5047 492.657 50.9222 484.393 53.0137C482.313 53.5412 482.722 50.5177 480.797 50.557C478.873 50.5952 475.418 59.8782 464.28 50.2853C462.255 48.5418 460.402 53.8067 456.299 46.3987C454.336 42.8552 449.688 45.0143 444.677 47.7488C439.667 50.4833 442.85 42.6228 432.45 44.354C428.948 44.9368 428.635 36.2316 428.635 36.2316C428.635 36.2316 429.144 31.3614 423.489 32.1864C423.628 34.0061 424.185 36.5255 424.031 38.8567C414.897 39.576 405.704 40.1231 396.489 40.5104C401.451 49.5427 395.098 48.1557 397.845 55.4888Z" fill="#49C7AB" stroke="#6B8B9E" stroke-width="1.06818"/>
<path d="M547.587 305.726C531.092 307.578 517.282 309.009 512.138 309.374V309.375C513.399 312.299 507.346 313.639 508.125 316.964C508.901 320.289 505.631 318.835 505.813 322.882C505.996 326.928 500.904 325.513 502.395 329.026C503.884 332.539 499.21 331.925 500.489 334.938C501.766 337.949 497.257 340.774 500.446 342.937C503.636 345.097 498.719 347.527 500.798 350.016C505.022 353.474 499.521 357.029 503.634 359.982C507.747 362.936 498.732 363.017 502.445 366.179C506.156 369.344 502.593 367.19 502.869 371.435C503.147 375.682 498.195 371.33 499.8 375.549C501.407 379.768 496.41 378.248 497.927 382.977C499.441 387.706 493.892 390.048 497.445 389.871C501.001 389.697 517.588 388.446 528.815 387.511C523.114 396.028 533.465 397.032 532.172 403.133C536.972 405.06 537.944 397.994 540.301 399.421C544.506 401.969 543.464 395.612 546.654 398.077C549.846 400.541 549.102 395.619 552.396 396.44L547.806 367.581L547.587 305.726Z" fill="#49C7AB" stroke="#6B8B9E" stroke-width="1.06818"/>
<path d="M520.913 263.651C522.564 262.708 519.281 258.219 519.712 256.997C520.145 255.771 518.072 251.721 515.984 252.972C514.933 253.602 499.634 248.598 507.005 237.515C511.776 230.343 499.878 238.115 498.933 229.176C498.473 224.797 496.786 223.734 493.991 223.051C483.103 220.387 484.937 206.076 485.377 205.308C483.983 203.97 481.616 199.766 479.496 200.113C477.377 200.46 430.52 205.213 420.928 204.346C421.736 206.759 428.788 215.598 427.545 215.752C431.76 221.285 432.701 215.343 434.597 218.95C436.496 222.555 431.069 222.772 432.605 225.368C437.482 233.619 438.72 227.216 439.364 233.935C439.802 238.508 440.951 261.564 441.346 274.998C441.518 280.739 441.616 284.712 441.616 284.712C441.616 284.712 484.928 282.41 511.232 280.828C516.858 283.48 506.595 286.828 510.706 289.781C512.423 291.013 518.329 289.522 519.677 289.294C518.269 285.089 522.132 283.776 520.174 282.196C518.218 280.616 520.726 279.351 521.833 279.103C520.448 275.712 528.769 276.35 525.959 272.763C524.654 271.098 526.396 269.413 525.863 268.109C524.814 268.585 519.262 264.598 520.913 263.651Z" fill="#49C7AB" stroke="#6B8B9E" stroke-width="1.06818"/>
<path d="M151.762 52.6669C153.947 55.5083 156.329 53.0296 158.328 61.6684C159.192 65.3988 158.765 68.1665 163.319 67.9206C167.871 67.6759 165.9 72.99 163.482 75.9655C158.59 81.9866 168.123 79.9701 160.835 87.7114C159.502 89.1278 162.921 93.1374 165.747 90.1938C168.574 87.2515 172.582 90.0549 170.274 96.0243C167.965 101.994 175.912 96.8198 173.171 104.013C171.531 108.322 179.698 103.576 177.622 113.59C176.468 119.158 180.441 110.243 185.39 114.545C190.34 118.848 192.556 110.18 196.175 114.325C200.533 119.314 203.454 113.569 204.954 117.47L206.22 107.69C221.677 110.614 290.35 116.629 303.696 117.104C304.009 110.519 304.32 103.945 304.618 97.5662C305.971 68.4813 307.048 43.4121 306.904 39.7517C249.88 36.6754 195.638 29.2317 151.49 21.1475C151.49 21.1475 149.241 33.4306 148.456 39.6718C154.375 46.6913 149.577 49.8254 151.762 52.6669Z" fill="#49C7AB" stroke="#6B8B9E" stroke-width="1.06818"/>
<path d="M427.547 215.749C428.79 215.595 421.738 206.757 420.931 204.344C417.733 196.512 420.319 189.321 416 186.069C411.676 182.816 417.491 177.231 412.278 174.907C407.064 172.585 409.937 171.918 408.345 166.94C402.534 159.162 397.165 164.13 393.287 160.261C389.41 156.393 388.821 164.756 380.163 157.492C357.993 158.248 316.484 157.546 301.802 156.342C300.911 174.563 300.186 189.198 299.932 194.675C312.381 195.437 322.379 195.924 327.156 195.93C327.156 195.93 327.036 204.367 326.888 215.989C343.25 217.183 415.875 217.202 427.547 215.749Z" fill="#49C7AB" stroke="#6B8B9E" stroke-width="1.06818"/>
<path d="M112.903 152.774C99.0813 150.22 84.7998 147.417 70.9206 144.463L57.8066 201.432L124.978 296.034C124.538 289.359 127.924 291.419 126.964 289.159C126.007 286.901 129.085 280.763 126.923 279.442C124.764 278.12 130.063 269.809 133.512 274.905C136.959 279.999 139.699 272.803 137.847 271.474C137.221 271.025 138.872 265.526 140.163 257.766C145.119 227.958 156.221 160.246 156.221 160.246C143.149 158.156 128.311 155.619 112.903 152.774Z" fill="#49C7AB" stroke="#6B8B9E" stroke-width="1.06818"/>
<path d="M772.178 96.948C771.625 99.6911 770.561 97.082 771.257 101.521C767.713 101.492 768.999 104.908 764.23 107.03C762.288 107.511 754.962 109.29 748.665 110.82C748.665 110.82 748.859 100.865 746.909 96.2472C744.959 91.6302 750.202 87.2863 747.039 81.2615C745.698 78.7065 754.854 77.0515 750.38 71.2714C747.179 67.1389 752.025 67.3897 750.226 63.7835C750.279 61.4535 749.779 56.705 754.44 56.8132L767.135 93.0012C767.135 93.0012 771.217 94.5369 772.178 96.948ZM745.416 38.8717C745.416 35.4707 742.875 32.7153 739.742 32.7153H717.873C714.739 32.7153 712.198 35.4707 712.198 38.8717V51.1499C712.198 54.5508 714.739 57.3062 717.873 57.3062H739.742C742.875 57.3062 745.416 54.5508 745.416 51.1499V38.8717Z" fill="#49C7AB" stroke="#6B8B9E" stroke-width="1.06818"/>
<path d="M738.781 153.107C735.37 154.595 735.988 155.67 736.128 157.092C736.695 162.865 742.534 158.295 741.813 162.561C741.367 165.203 741.717 167.929 740.734 169.367C739.751 170.804 743.771 174.166 741.07 175.84C738.369 177.514 742.858 179.144 739.242 180.533C735.622 181.924 738.92 184.691 737.116 185.639C735.31 186.587 739.106 193.798 734.521 192.475C732.475 191.885 734.833 188.014 732.308 188.369C729.783 188.725 727.59 185.428 725.679 186.075C723.765 186.722 723.135 180.559 722.436 181.18C721.65 179.857 721.364 177.644 723.729 177.104C728.613 175.994 727.013 171.977 729.796 169.49C732.582 167.004 725.214 163.308 723.515 162.735C721.813 162.162 720.875 159.144 722.27 158.103C723.667 157.063 719.981 155.113 722.176 153.448C724.37 151.784 725.048 145.291 725.048 145.291L738.704 149.262C738.704 149.262 738.349 151.699 738.781 153.107ZM826.617 203.632C826.617 200.231 824.076 197.474 820.941 197.474H799.075C795.94 197.474 793.399 200.231 793.399 203.632V215.908C793.399 219.308 795.94 222.065 799.075 222.065H820.941C824.076 222.065 826.617 219.308 826.617 215.908V203.632Z" fill="#49C7AB" stroke="#6B8B9E" stroke-width="1.06818"/>
<path d="M305.841 374.545C305.841 374.545 309.307 312.723 310.548 284.925C310.741 280.572 310.881 277.054 310.944 274.738C281.477 273.404 249.606 271.227 217.357 267.941C211.805 320.986 206.482 371.863 205.318 379.169C213.385 379.906 219.699 380.457 219.699 380.457L220.95 372.23C220.95 372.23 246.412 373.939 247.628 374.016L246.23 369.944L305.841 374.545Z" fill="#49C7AB" stroke="#6B8B9E" stroke-width="1.06818"/>
<path d="M742.848 143.812L739.077 127.386C739.077 127.386 738.628 115.855 738.778 113.22C738.928 110.584 735.238 98.5119 733.605 97.9795C731.975 97.4495 731.484 93.3232 728.967 89.1218C726.449 84.9205 729.809 80.8027 727.717 77.6047C725.626 74.4078 727.039 74.1767 725.956 70.8594C722.938 71.8319 712.188 75.2734 707.922 75.6816C698.398 76.594 698.212 86.8152 694.681 93.5396C693.227 96.3073 690.698 98.8352 691.693 98.8377C699.219 98.8574 689.67 104.988 693.471 107.056C697.772 109.398 688.445 108.98 689.716 111.79C690.989 114.599 686.407 118.337 682.928 116.585C679.446 114.833 679.954 119.885 672.422 118.217C664.894 116.548 654.488 124.131 655.25 125.451C656.011 126.772 657.598 129.266 659.033 132.157C661.446 137.019 652.286 143.937 649.879 145.2L650.773 149.232C650.773 149.232 704.416 137 713.291 135.199C714.353 137.606 718.195 137.123 718.658 139.949C719.122 142.774 725.046 145.286 725.046 145.286L738.702 149.258C738.702 149.258 738.347 151.696 738.78 153.104C737.622 155.862 739.04 155.832 739.87 156.929C740.704 158.027 760.442 147.194 760.816 145.769C761.192 144.344 764.806 142.752 763.878 141.962C762.948 141.171 761.592 142.713 760.24 142.441C757.495 141.889 756.663 148.785 751.003 146.476C748.194 145.329 749.878 150.852 745.696 149.521C743.58 148.847 742.793 151.2 741.801 152.233C740.808 153.265 740.647 150.332 742.435 148.474L740.461 146.186L742.848 143.812Z" fill="#49C7AB" stroke="#6B8B9E" stroke-width="1.06818"/>
<path d="M639.542 268.825C638.993 271.719 633.298 268.193 632.622 272.306C631.947 276.42 626.555 272.886 626.342 277.294C626.129 281.702 620.113 277.268 619.62 282.9C619.129 288.527 609.151 283.72 610.482 289.31C611.812 294.904 604.829 291.35 606.076 298.64C614.059 297.574 620.76 296.586 625.203 295.847C627.005 295.545 634.661 290.186 637.227 289.374C639.793 288.562 650.407 287.434 656.316 286.555C662.223 285.672 662.499 291.744 662.499 291.744L680.675 288.944L701.936 303.188C714.443 300.503 705.352 296.843 711.811 295.593C714.916 294.996 712.739 286.567 717.389 286.168C722.041 285.771 721.423 280.314 727.606 280.391C732.08 280.447 731.292 277.383 732.265 275.436C733.237 273.495 730.61 273.854 730.232 275.073C729.852 276.297 724.204 277.424 722.162 276.758C720.122 276.092 721.18 273.335 722.723 274.518C724.268 275.701 725.956 274.047 728.022 270.968C730.085 267.89 727.182 269.67 724.61 267.598C722.035 265.525 721.27 267.766 719.217 266.468C717.164 265.168 723.813 263.361 725.478 265.554C727.146 267.745 727.72 263.546 730.748 265.649C734.86 268.499 734.318 261.933 736.433 261.381C738.553 260.832 738.664 256.477 736.409 255.206C734.155 253.938 734.337 257.881 733.959 259.205C733.581 260.529 731.406 258.247 732.088 256.896C732.772 255.547 728.99 254.042 728.519 255.672C728.044 257.302 724.193 257.179 722.059 256.817C719.924 256.456 719.321 251.812 720.423 251.08C721.523 250.347 720.716 253.295 723.019 254.266C726.903 255.907 728.471 248.384 730.61 248.948C732.748 249.512 733.421 247.778 732.689 246.578C731.955 245.378 730.006 244.202 729.965 242.178C710.984 249.228 676.653 255.835 642.646 261.193C642.943 264.202 640.091 265.929 639.542 268.825Z" fill="#49C7AB" stroke="#6B8B9E" stroke-width="1.06818"/>
<path d="M304.619 97.5662C328.823 99.1142 390.506 99.9244 406.283 99.9626C408.414 90.0991 400.092 91.7885 403.852 82.4477C404.992 79.6136 401.279 73.863 402.476 67.2898C403.065 64.0647 401.155 64.3254 397.843 55.4887C395.095 48.1556 401.45 49.5426 396.488 40.5103C366.556 41.7645 336.358 41.3415 306.903 39.7529C307.049 43.4121 305.972 68.4813 304.619 97.5662Z" fill="#49C7AB" stroke="#6B8B9E" stroke-width="1.06818"/>
<path d="M600.448 224.572C603.232 222.085 603.555 227.951 606.749 225.659C609.944 223.366 612.657 227.157 613.836 225.311C615.011 223.466 616.597 221.61 618.266 224.005C619.936 226.402 623.163 225.728 622.613 228.574C626.272 229.107 627.612 225.231 627.479 218.84C627.35 212.45 634.134 217.405 633.602 211.138C633.068 204.871 635.784 204.082 637.745 205.587C638.773 206.376 646.193 200.151 644.575 197.348C642.228 193.274 645.574 192.063 644.411 189.252C643.249 186.441 645.013 184.584 643.117 180.977C641.218 177.372 645.744 178.283 645.744 178.283L640.513 152.686C638.309 153.945 624.777 165.965 621.538 166.031C618.297 166.097 614.728 169.813 611.06 168.876C607.395 167.939 598.048 166.712 598.013 164.891L579.017 167.304L586.573 219.793C595.659 218.392 597.661 227.06 600.448 224.572Z" fill="#49C7AB" stroke="#6B8B9E" stroke-width="1.06818"/>
<path d="M441.315 284.715C441.315 284.715 441.368 280.741 441.197 274.999C419.389 276.598 377.277 277.242 326.268 275.372C321.217 275.186 316.118 274.976 310.904 274.739C310.841 277.054 310.722 280.572 310.527 284.923L357.867 286.421C357.867 286.421 357.481 314.084 357.113 323.645C363.459 321.548 359.212 329.519 364.953 327.882C370.693 326.247 368.094 332.829 373.081 331.514C378.069 330.197 374.101 336.809 380.109 333.345C385.761 330.084 384.031 339.338 389.88 335.574C395.728 331.812 390.446 341.031 396.609 337.715C402.771 334.401 397.487 343.468 405.152 339.364C412.817 335.257 415.315 345.852 419.601 340.062C423.891 334.272 425.13 342.902 430.497 337.934C435.867 332.966 442.003 343.165 445.594 340.511L444.849 304.082L441.315 284.715Z" fill="#49C7AB" stroke="#6B8B9E" stroke-width="1.06818"/>
<path d="M112.903 152.774C113.717 149.567 117.781 122.305 120.005 117.095C122.231 111.886 122.885 111.872 120.405 109.443C117.924 107.013 123.98 98.486 125.79 97.8417C127.6 97.1975 128.969 89.8804 133.294 85.8438C137.617 81.8072 127.562 80.4941 129.292 75.903C125.325 75.0742 88.5658 68.3818 85.2845 71.3807C82.002 74.3783 80.2279 69.3114 76.0141 71.3721C73.3898 72.6557 63.6998 66.2092 59.8403 68.0572C54.8748 70.4364 47.7673 64.6588 50.5293 58.5283C51.3093 56.7934 50.8824 53.5092 47.8571 54.1794C44.8317 54.8482 44.0037 51.5235 42.0364 51.8678C40.0667 52.2121 39.7161 49.9423 36.6907 50.61C27.611 77.221 25.1922 97.6192 21.751 97.7889C18.311 97.9598 20.9574 103.578 17.9161 103.435C14.8747 103.292 11.4828 110.856 12.1594 114.284C12.8386 117.712 12.9062 126.013 11.7682 129.782C28.2581 134.795 49.0935 139.816 70.9206 144.462C84.7998 147.416 99.0801 150.219 112.903 152.774Z" fill="#49C7AB" stroke="#6B8B9E" stroke-width="1.06818"/>
<path d="M645.743 178.284L649.291 195.634L663.798 192.612L718.287 181.267C718.287 181.267 716.887 176.637 723.73 177.105C728.615 175.994 727.014 171.977 729.797 169.49C732.584 167.004 725.215 163.308 723.516 162.735C721.815 162.162 720.876 159.145 722.271 158.103C723.669 157.063 719.983 155.113 722.178 153.448C724.371 151.785 725.049 145.291 725.049 145.291C725.049 145.291 719.125 142.781 718.661 139.954C718.199 137.13 714.357 137.613 713.295 135.204C704.418 137.004 650.776 149.237 650.776 149.237L649.883 145.205C647.478 146.469 642.719 151.427 640.514 152.686L645.743 178.284Z" fill="#49C7AB" stroke="#6B8B9E" stroke-width="1.06818"/>
<path d="M769.962 122.403C769.316 125.454 769.154 127.38 770.397 128.772C771.641 130.163 769.065 132.95 766.056 134.428L763.255 121.224C763.255 121.224 768.67 118.685 769.962 122.403ZM826.617 169.205C826.617 165.804 824.076 163.047 820.941 163.047H799.075C795.94 163.047 793.399 165.804 793.399 169.205V181.48C793.399 184.881 795.94 187.638 799.075 187.638H820.941C824.076 187.638 826.617 184.881 826.617 181.48V169.205Z" fill="#49C7AB" stroke="#6B8B9E" stroke-width="1.06818"/>
<path d="M662.499 291.742C662.499 291.742 662.222 285.671 656.316 286.554C650.407 287.433 639.793 288.56 637.227 289.373C634.66 290.183 627.004 295.544 625.203 295.845C622.707 300.147 621.685 302.142 629.489 304.868C637.296 307.594 635.603 314.007 641.09 314.806C646.577 315.604 643.191 320.989 647.593 320.748C651.994 320.506 651.209 326.749 656.11 328.47C661.005 330.191 660.415 338 664.208 338.177C666.489 338.281 663.763 346.185 672.218 346.012C673.104 344.678 671.225 341.98 671.263 338.842C671.299 335.703 674.637 340.496 675.752 340.472C676.868 340.448 677.018 337.915 675.891 337.329C674.766 336.744 675.667 334.541 679.707 335.733C686.129 337.626 682.81 328.988 687.265 328.693C691.716 328.4 687.211 325.756 690.112 324.281C695.925 321.329 689.952 316.489 694.863 313.96C697.179 312.767 695.16 304.64 701.938 303.184L680.677 288.94L662.499 291.742Z" fill="#49C7AB" stroke="#6B8B9E" stroke-width="1.06818"/>
<path d="M380.162 157.493C388.82 164.757 389.409 156.393 393.286 160.262C397.164 164.131 402.533 159.163 408.344 166.941C406.753 161.962 411.664 159.887 408.158 157.834C404.653 155.779 409.216 151.585 406.996 149.81C404.778 148.033 407.614 147.519 408.812 146.582L408.148 114.099C408.064 110.001 403.171 108.583 402.363 106.168C401.555 103.756 408.863 104.517 406.131 99.9674C390.355 99.9293 328.749 99.1191 304.544 97.5698C304.246 103.95 303.975 110.523 303.661 117.106C303.015 130.681 302.371 144.296 301.783 156.347C316.465 157.547 357.993 158.249 380.162 157.493Z" fill="#49C7AB" stroke="#6B8B9E" stroke-width="1.06818"/>
<path d="M543.961 276.243C543.961 276.243 522.642 278.861 521.534 279.109C520.427 279.355 518.07 280.619 520.027 282.198C521.983 283.776 518.197 285.092 519.603 289.293C521.691 295.527 514.648 291.016 516.186 296.855C517.254 300.911 512.698 298.748 514.27 301.45C515.846 304.15 510.867 306.447 512.129 309.373C517.273 309.008 531.087 307.577 547.582 305.725C559.575 304.377 572.981 302.807 585.473 301.269C592.81 300.365 599.835 299.47 606.075 298.638C604.826 291.348 611.812 294.901 610.482 289.308C609.151 283.717 619.127 288.525 619.62 282.897C620.112 277.267 626.129 281.7 626.342 277.292C626.556 272.884 631.949 276.417 632.622 272.303C633.298 268.191 638.993 271.717 639.542 268.822C640.09 265.927 642.943 264.198 642.647 261.187C632.191 262.835 621.46 264.367 611.517 265.756C574.499 270.916 543.918 274.116 543.918 274.116L543.961 276.243Z" fill="#49C7AB" stroke="#6B8B9E" stroke-width="1.06818"/>
<path d="M462.418 405.268C465.941 404.079 461.319 401.037 463.513 399.372C465.71 397.707 467.868 389.26 463.287 388.24C458.707 387.218 464.006 383.77 460.14 382.938C456.271 382.104 460.885 374.924 453.555 373.151L453.139 352.809L452.935 342.791C451.673 340.539 449.031 345.185 445.897 340.505C442.306 343.161 436.02 332.963 430.648 337.931C425.281 342.9 423.811 334.272 419.523 340.064C415.236 345.853 412.778 335.258 405.113 339.365C397.448 343.468 402.751 334.401 396.589 337.715C390.426 341.03 395.718 331.812 389.869 335.576C384.019 339.339 385.755 330.085 380.103 333.347C374.095 336.809 378.065 330.198 373.078 331.516C368.09 332.83 370.692 326.248 364.952 327.884C359.211 329.52 363.462 321.549 357.116 323.647C357.484 314.086 357.876 286.422 357.876 286.422L310.546 284.926C309.304 312.723 305.838 374.546 305.838 374.546L246.226 369.945L247.625 374.017C248.842 374.094 252.496 374.424 252.152 377.469C251.809 380.513 258.922 383.232 260.121 385.707C265.516 396.837 272.851 393.953 272.538 398.412C272.224 402.872 277.475 402.058 276.53 405.416C275.585 408.777 278.096 412.673 278.986 416.504C279.874 420.333 286.057 420.511 286.334 424.15C286.611 427.787 293.971 428.12 297.101 430.511C305.229 436.723 306.599 414.524 314.662 417.498C319.13 419.144 318.044 414.391 320.418 416.57C322.792 418.748 330.615 414.846 333.246 419.65C335.877 424.453 345.914 429.819 346.328 435.276C346.744 440.734 351.56 443.37 351.347 447.828C351.134 452.285 360.207 450.179 359.959 457.879C359.836 461.707 367.416 460.865 365.856 468.793C365.125 472.503 370.049 475.693 370.244 480.346C370.441 484.996 376.361 482.244 377.447 485.765C378.531 489.287 382.331 486.986 384.817 489.564C389.993 494.927 395.316 487.731 401.232 494.696C403.366 497.206 403.332 493.337 404.023 492.41C404.713 491.486 402.506 488.938 403.118 487.774C404.678 484.806 397.551 483.03 400.626 479.826C403.7 476.622 396.482 475.358 399.061 472.671C401.641 469.985 400.087 468.295 398.865 468.017C397.645 467.738 397.412 466.328 399.228 465.987C401.045 465.647 403.099 460.822 402.742 459.436C400.98 452.59 407.448 456.708 406.045 452.585C405.259 450.27 409.785 447.245 411.015 447.828C412.241 448.411 410.947 444.588 413.511 446.156C416.075 447.724 416.811 444.066 415.589 443.683C414.363 443.304 412.373 436.788 415.615 440.039C420.269 444.704 417.377 436.968 422.631 441.313C425.337 443.548 424.432 438.482 428.123 439.278C434.57 440.666 433.233 434.719 437.07 434.032C440.906 433.347 440.509 428.8 442.215 428.056C443.923 427.315 443.245 423.884 442.303 422.485C441.364 421.088 444.023 417.388 445.749 417.557C447.474 417.722 447.242 421.271 449.875 421.218C452.508 421.166 457.701 417.516 460.819 416.341C463.379 412.737 458.899 406.45 462.418 405.268Z" fill="#49C7AB" stroke="#6B8B9E" stroke-width="1.06818"/>
<path d="M196.072 186.054L198.654 166.122C190.86 165.42 175.449 163.316 156.222 160.244C156.222 160.244 145.12 227.956 140.164 257.764C165.442 261.965 191.52 265.307 217.357 267.94C220.25 240.318 223.203 212.108 225.665 189.156C211.468 187.919 200.301 186.787 196.072 186.054Z" fill="#49C7AB" stroke="#6B8B9E" stroke-width="1.06818"/>
<path d="M727.717 77.606C725.626 74.4092 727.039 74.1781 725.956 70.8608C728.976 69.8882 748.522 64.6294 750.226 63.7847C752.025 67.3922 747.179 67.1402 750.38 71.2727C754.854 77.0527 745.698 78.7065 747.039 81.2627C750.201 87.2875 744.959 91.6315 746.91 96.2484C748.86 100.865 748.665 110.821 748.665 110.821C743.358 112.111 738.778 113.221 738.778 113.221C738.928 110.585 735.238 98.5132 733.605 97.9808C731.975 97.4509 731.484 93.3246 728.967 89.1232C726.449 84.9218 729.808 80.8041 727.717 77.606ZM704.815 38.8717C704.815 35.4707 702.275 32.7153 699.141 32.7153H677.272C674.139 32.7153 671.598 35.4707 671.598 38.8717V51.1499C671.598 54.5508 674.139 57.3062 677.272 57.3062H699.141C702.275 57.3062 704.815 54.5508 704.815 51.1499V38.8717Z" fill="#49C7AB" stroke="#6B8B9E" stroke-width="1.06818"/>
<path d="M705.924 210.777C704.539 212.323 712.875 213.975 714.643 216.166C716.411 218.356 719.817 216.465 719.846 217.983C719.878 219.5 717.519 218.132 718.15 219.232C718.781 220.333 720.48 224.147 718.326 222.772C716.169 221.398 711.32 217.143 710.32 217.872C709.326 218.602 716.212 223.522 717.642 224.101C719.072 224.679 721.736 226.244 721.757 227.155C721.774 228.065 720.106 230.63 718.873 229.745C717.639 228.86 714.329 225.585 713.743 226.61C713.156 227.634 717.788 231.286 719.104 231.258C720.422 231.231 723.184 232.591 722.702 233.715C722.216 234.84 718.652 233.797 718.03 233.204C717.41 232.609 711.599 230.804 711.619 231.815C711.641 232.829 716 232.981 717.24 234.302C718.486 235.623 720.455 237.811 721.77 237.683C723.082 237.555 728.089 234.618 728.743 236.833C729.396 239.046 729.924 240.151 729.966 242.173C710.984 249.223 676.654 255.83 642.646 261.188C632.19 262.836 621.763 264.363 611.82 265.75C612.165 262.811 623.087 261.768 620.995 258.572C618.902 255.375 626.016 256.444 625.325 252.206C624.63 247.968 633.516 246.572 634.274 244.127C643.733 251.018 641.462 242.042 645.637 244.9C652.828 249.821 652.613 239.296 657.279 239.697C661.949 240.096 661.288 237.501 659.809 234.493C658.328 231.488 665.867 223.639 665.146 218.069C664.424 212.502 672.032 221.165 673.344 212.755C674.008 208.484 678.946 209.199 677.782 205.578C676.622 201.958 681.294 205.304 681.961 198.205C682.624 191.105 691.4 203.478 691.209 194.777C698.399 194.629 694.166 200.587 697.988 199.294C701.811 198 706.485 202.085 703.578 205.052C698.717 210.012 700.728 214.223 705.924 210.777ZM727.149 218.341C725.95 219.174 726.964 224.115 726.266 224.736C725.57 225.358 726.174 230.104 727.393 230.281C728.612 230.459 728.513 225.601 728.364 223.276C728.214 220.95 730.573 222.32 730.957 221.3C731.341 220.281 732.012 213.483 732.589 211.953L730.27 212.507C730.797 213.407 728.349 217.506 727.149 218.341Z" fill="#49C7AB" stroke="#6B8B9E" stroke-width="1.06818"/>
<path d="M42.0364 51.869C44.0037 51.5247 44.8317 54.8494 47.857 54.1805C50.8824 53.5117 51.3105 56.7945 50.5293 58.5294C47.7672 64.6599 54.8747 70.4376 59.8403 68.0584C63.6998 66.2104 73.391 72.6569 76.0141 71.3733C80.2267 69.3125 82.002 74.3795 85.2845 71.3819C88.5657 68.383 125.324 75.0742 129.292 75.9041C131.021 71.3142 128.491 66.5055 129.053 64.2161C130.473 58.4225 136.733 24.8177 137.985 18.5962C106.3 12.4215 80.8061 6.10161 64.6545 1.2449C61.5923 0.322742 71.5099 9.60827 67.7943 11.203C64.0775 12.7977 70.1024 15.1056 66.8962 16.7888C63.69 18.4733 68.2397 23.0386 66.5492 24.5915C64.8588 26.1444 64.0603 31.6282 64.1956 33.3459C64.3322 35.0636 60.4973 35.7521 59.0049 37.0972C57.5125 38.4436 55.1233 35.5578 54.4995 34.7598C53.877 33.9619 56.2589 31.5864 57.5913 32.3696C58.9237 33.1516 62.0143 30.6605 60.5416 28.0564C60.0113 27.1207 63.1314 25.8788 62.4018 24.8805C61.6722 23.8821 59.2079 27.1723 57.1779 27.0125C55.1479 26.8514 58.9336 23.7357 60.8442 22.9906C62.7537 22.2431 61.6796 19.227 59.2547 19.5799C56.8297 19.934 57.5901 17.6003 54.1316 16.7495C44.2559 14.3199 40.1196 7.791 39.3703 8.24347C32.766 12.226 42.2382 19.7262 38.4414 27.1932C36.8383 30.3446 38.7711 33.2573 40.4247 35.05C43.6358 38.5309 36.7128 36.8489 39.625 40.5326C42.5371 44.2175 39.4404 46.4086 37.5027 45.7397C35.5637 45.0708 37.4449 48.4041 36.6907 50.6148C39.716 49.9423 40.0667 52.2133 42.0364 51.869Z" fill="#49C7AB" stroke="#6B8B9E" stroke-width="1.06818"/>
<path d="M645.743 178.283C645.743 178.283 641.217 177.372 643.116 180.977C645.012 184.585 643.247 186.443 644.409 189.252C645.572 192.063 642.227 193.274 644.574 197.347C646.192 200.15 638.772 206.376 637.744 205.587C635.782 204.082 633.067 204.871 633.601 211.138C634.134 217.404 627.349 212.449 627.478 218.84C627.609 225.231 626.271 229.107 622.612 228.574C622.063 231.419 620.6 229.222 625.6 236.004C630.603 242.787 630.784 240.934 634.276 244.129C643.735 251.021 641.464 242.044 645.64 244.903C652.831 249.823 652.616 239.298 657.281 239.699C661.951 240.099 661.291 237.503 659.812 234.496C658.33 231.491 665.87 223.641 665.149 218.071C664.427 212.504 672.035 221.167 673.346 212.757C674.011 208.486 678.948 209.202 677.784 205.581C676.624 201.961 681.297 205.306 681.964 198.207C682.627 191.108 691.403 203.48 691.212 194.779C691.133 191.13 688.917 191.585 685.047 190.45C681.172 189.314 680.055 194.196 676.396 193.461C672.732 192.727 677.072 196.889 672.809 196.369C668.541 195.849 666.059 203.188 666.059 203.188L663.798 192.613L649.291 195.635L645.743 178.283Z" fill="#49C7AB" stroke="#6B8B9E" stroke-width="1.06818"/>
<path d="M485.881 148.045C485.002 149.733 484.669 155.662 487.896 157.419C491.124 159.176 493.561 159.582 493.916 162.004L533.854 158.305C533.57 154.259 534.232 146.958 530.305 143.191C526.381 139.424 533.184 135.437 531.491 131.828C529.797 128.216 536.207 124.645 533.929 122.263C531.652 119.878 535.744 111.899 533.702 111.129C531.659 110.361 530.86 120.907 526.352 118.366C522.689 116.302 533.207 108.069 531.719 103.971C531.375 103.025 530.392 102.301 528.447 101.924C522.823 100.829 529.314 94.8182 525.062 94.9055C520.809 94.9916 520.518 90.682 515.861 90.8406C501.081 91.346 511.125 87.0905 494.942 86.611C488.579 86.4229 490.179 83.2666 487.917 81.6928C485.655 80.119 484.722 83.9859 481.637 81.8219C478.554 79.6567 484.981 76.8939 483.723 74.693C482.46 72.4921 470.518 82.8596 466.721 80.5579C466.453 82.3863 464.3 81.0633 464.361 84.099C464.424 87.1348 465.342 94.86 463.526 95.2006C461.707 95.5412 455.281 100.836 458.237 104.116C461.189 107.398 455.71 106.902 459.435 110.623C463.154 114.342 457.341 119.778 460.552 120.774C463.764 121.771 464.496 124.973 467.63 125.034C471.429 125.109 472.195 133.901 477.129 133.192C482.067 132.484 485.563 142.919 482.893 143.249C484.148 145.044 486.758 146.357 485.881 148.045Z" fill="#49C7AB" stroke="#6B8B9E" stroke-width="1.06818"/>
<path d="M225.664 189.157C248.012 191.109 277.846 193.327 299.93 194.677C300.186 189.2 300.91 174.565 301.801 156.345C302.39 144.296 303.052 130.679 303.698 117.105C290.351 116.63 221.679 110.616 206.221 107.691L204.955 117.471L198.653 166.123L196.071 186.055C200.301 186.787 211.468 187.919 225.664 189.157Z" fill="#49C7AB" stroke="#6B8B9E" stroke-width="1.06818"/>
<path d="M786.016 284.763C786.016 288.164 783.476 290.92 780.342 290.92H758.473C755.34 290.92 752.799 288.164 752.799 284.763V272.485C752.799 269.084 755.34 266.329 758.473 266.329H780.342C783.476 266.329 786.016 269.084 786.016 272.485V284.763Z" fill="#49C7AB" stroke="#6B8B9E" stroke-width="1.06818"/>
</svg>
